function data()
return { 
		subMeshes = {
			{ 
				indices = { 
					normal = { 
						count = 21720,
						offset = 109460,
					},
					position = { 
						count = 21720,
						offset = 66020,
					},
					tangent = { 
						count = 21720,
						offset = 131180,
					},
					uv0 = { 
						count = 21720,
						offset = 87740,
					},
				},
			},
		},
		vertexAttr = { 
			normal = { 
				count = 6108,
				numComp = 3,
				offset = 30952,
			},
			position = { 
				count = 12648,
				numComp = 3,
				offset = 0,
			},
			tangent = { 
				count = 28960,
				numComp = 4,
				offset = 37060,
			},
			uv0 = { 
				count = 18304,
				numComp = 2,
				offset = 12648,
			},
		},
	}
end