function data()
return { 
		subMeshes = {
			{ 
				indices = { 
					normal = { 
						count = 66624,
						offset = 383904,
					},
					position = { 
						count = 66624,
						offset = 250656,
					},
					tangent = { 
						count = 66624,
						offset = 450528,
					},
					uv0 = { 
						count = 66624,
						offset = 317280,
					},
				},
			},
		},
		vertexAttr = { 
			normal = { 
				count = 52692,
				numComp = 3,
				offset = 104972,
			},
			position = { 
				count = 55788,
				numComp = 3,
				offset = 0,
			},
			tangent = { 
				count = 92992,
				numComp = 4,
				offset = 157664,
			},
			uv0 = { 
				count = 49184,
				numComp = 2,
				offset = 55788,
			},
		},
	}
end