function data()
return { 
		subMeshes = {
			{ 
				indices = { 
					normal = { 
						count = 34908,
						offset = 215904,
					},
					position = { 
						count = 34908,
						offset = 146088,
					},
					tangent = { 
						count = 34908,
						offset = 250812,
					},
					uv0 = { 
						count = 34908,
						offset = 180996,
					},
				},
			},
		},
		vertexAttr = { 
			normal = { 
				count = 30384,
				numComp = 3,
				offset = 62232,
			},
			position = { 
				count = 34248,
				numComp = 3,
				offset = 0,
			},
			tangent = { 
				count = 53472,
				numComp = 4,
				offset = 92616,
			},
			uv0 = { 
				count = 27984,
				numComp = 2,
				offset = 34248,
			},
		},
	}
end