function data()
return { 
		subMeshes = {
			{ 
				indices = { 
					normal = { 
						count = 10860,
						offset = 72780,
					},
					position = { 
						count = 10860,
						offset = 51060,
					},
					tangent = { 
						count = 10860,
						offset = 83640,
					},
					uv0 = { 
						count = 10860,
						offset = 61920,
					},
				},
			},
		},
		vertexAttr = { 
			normal = { 
				count = 6828,
				numComp = 3,
				offset = 23224,
			},
			position = { 
				count = 12024,
				numComp = 3,
				offset = 0,
			},
			tangent = { 
				count = 21008,
				numComp = 4,
				offset = 30052,
			},
			uv0 = { 
				count = 11200,
				numComp = 2,
				offset = 12024,
			},
		},
	}
end