function data()
return { 
		subMeshes = {
			{ 
				indices = { 
					normal = { 
						count = 21720,
						offset = 110252,
					},
					position = { 
						count = 21720,
						offset = 66812,
					},
					tangent = { 
						count = 21720,
						offset = 131972,
					},
					uv0 = { 
						count = 21720,
						offset = 88532,
					},
				},
			},
		},
		vertexAttr = { 
			normal = { 
				count = 6540,
				numComp = 3,
				offset = 30928,
			},
			position = { 
				count = 12624,
				numComp = 3,
				offset = 0,
			},
			tangent = { 
				count = 29344,
				numComp = 4,
				offset = 37468,
			},
			uv0 = { 
				count = 18304,
				numComp = 2,
				offset = 12624,
			},
		},
	}
end