function data()
return { 
		subMeshes = {
			{ 
				indices = { 
					normal = { 
						count = 23040,
						offset = 146324,
					},
					position = { 
						count = 23040,
						offset = 100244,
					},
					tangent = { 
						count = 23040,
						offset = 169364,
					},
					uv0 = { 
						count = 23040,
						offset = 123284,
					},
				},
			},
		},
		vertexAttr = { 
			normal = { 
				count = 19524,
				numComp = 3,
				offset = 41552,
			},
			position = { 
				count = 24816,
				numComp = 3,
				offset = 0,
			},
			tangent = { 
				count = 39168,
				numComp = 4,
				offset = 61076,
			},
			uv0 = { 
				count = 16736,
				numComp = 2,
				offset = 24816,
			},
		},
	}
end