function data()
return { 
		subMeshes = {
			{ 
				indices = { 
					normal = { 
						count = 144240,
						offset = 844244,
					},
					position = { 
						count = 144240,
						offset = 555764,
					},
					tangent = { 
						count = 144240,
						offset = 988484,
					},
					uv0 = { 
						count = 144240,
						offset = 700004,
					},
				},
			},
		},
		vertexAttr = { 
			normal = { 
				count = 63924,
				numComp = 3,
				offset = 214832,
			},
			position = { 
				count = 139224,
				numComp = 3,
				offset = 0,
			},
			tangent = { 
				count = 277008,
				numComp = 4,
				offset = 278756,
			},
			uv0 = { 
				count = 75608,
				numComp = 2,
				offset = 139224,
			},
		},
	}
end