function data()
return { 
		subMeshes = {
			{ 
				indices = { 
					normal = { 
						count = 16644,
						offset = 93944,
					},
					position = { 
						count = 16644,
						offset = 60656,
					},
					tangent = { 
						count = 16644,
						offset = 110588,
					},
					uv0 = { 
						count = 16644,
						offset = 77300,
					},
				},
			},
		},
		vertexAttr = { 
			normal = { 
				count = 10080,
				numComp = 3,
				offset = 26816,
			},
			position = { 
				count = 17232,
				numComp = 3,
				offset = 0,
			},
			tangent = { 
				count = 23760,
				numComp = 4,
				offset = 36896,
			},
			uv0 = { 
				count = 9584,
				numComp = 2,
				offset = 17232,
			},
		},
	}
end