function data()
return { 
		subMeshes = {
			{ 
				indices = { 
					normal = { 
						count = 93408,
						offset = 440984,
					},
					position = { 
						count = 93408,
						offset = 254168,
					},
					tangent = { 
						count = 93408,
						offset = 534392,
					},
					uv0 = { 
						count = 93408,
						offset = 347576,
					},
				},
			},
		},
		vertexAttr = { 
			normal = { 
				count = 18528,
				numComp = 3,
				offset = 125256,
			},
			position = { 
				count = 52992,
				numComp = 3,
				offset = 0,
			},
			tangent = { 
				count = 110384,
				numComp = 4,
				offset = 143784,
			},
			uv0 = { 
				count = 72264,
				numComp = 2,
				offset = 52992,
			},
		},
	}
end