function data()
return { 
		subMeshes = {
			{ 
				indices = { 
					normal = { 
						count = 46704,
						offset = 294360,
					},
					position = { 
						count = 46704,
						offset = 200952,
					},
					tangent = { 
						count = 46704,
						offset = 341064,
					},
					uv0 = { 
						count = 46704,
						offset = 247656,
					},
				},
			},
		},
		vertexAttr = { 
			normal = { 
				count = 20508,
				numComp = 3,
				offset = 88204,
			},
			position = { 
				count = 43644,
				numComp = 3,
				offset = 0,
			},
			tangent = { 
				count = 92240,
				numComp = 4,
				offset = 108712,
			},
			uv0 = { 
				count = 44560,
				numComp = 2,
				offset = 43644,
			},
		},
	}
end