function data()
return { 
		subMeshes = {
			{ 
				indices = { 
					normal = { 
						count = 29712,
						offset = 131980,
					},
					position = { 
						count = 29712,
						offset = 72556,
					},
					tangent = { 
						count = 29712,
						offset = 161692,
					},
					uv0 = { 
						count = 29712,
						offset = 102268,
					},
				},
			},
		},
		vertexAttr = { 
			normal = { 
				count = 9228,
				numComp = 3,
				offset = 32816,
			},
			position = { 
				count = 18504,
				numComp = 3,
				offset = 0,
			},
			tangent = { 
				count = 30512,
				numComp = 4,
				offset = 42044,
			},
			uv0 = { 
				count = 14312,
				numComp = 2,
				offset = 18504,
			},
		},
	}
end