function data()
return { 
		subMeshes = {
			{ 
				indices = { 
					normal = { 
						count = 55512,
						offset = 240224,
					},
					position = { 
						count = 55512,
						offset = 129200,
					},
					tangent = { 
						count = 55512,
						offset = 295736,
					},
					uv0 = { 
						count = 55512,
						offset = 184712,
					},
				},
			},
		},
		vertexAttr = { 
			normal = { 
				count = 18120,
				numComp = 3,
				offset = 55192,
			},
			position = { 
				count = 32688,
				numComp = 3,
				offset = 0,
			},
			tangent = { 
				count = 55888,
				numComp = 4,
				offset = 73312,
			},
			uv0 = { 
				count = 22504,
				numComp = 2,
				offset = 32688,
			},
		},
	}
end