function data()
return { 
		subMeshes = {
			{ 
				indices = { 
					normal = { 
						count = 61188,
						offset = 276864,
					},
					position = { 
						count = 61188,
						offset = 154488,
					},
					tangent = { 
						count = 61188,
						offset = 338052,
					},
					uv0 = { 
						count = 61188,
						offset = 215676,
					},
				},
			},
		},
		vertexAttr = { 
			normal = { 
				count = 25284,
				numComp = 3,
				offset = 66628,
			},
			position = { 
				count = 33876,
				numComp = 3,
				offset = 0,
			},
			tangent = { 
				count = 62576,
				numComp = 4,
				offset = 91912,
			},
			uv0 = { 
				count = 32752,
				numComp = 2,
				offset = 33876,
			},
		},
	}
end