function data()
return { 
		subMeshes = {
			{ 
				indices = { 
					normal = { 
						count = 25584,
						offset = 115512,
					},
					position = { 
						count = 25584,
						offset = 64344,
					},
					tangent = { 
						count = 25584,
						offset = 141096,
					},
					uv0 = { 
						count = 25584,
						offset = 89928,
					},
				},
			},
		},
		vertexAttr = { 
			normal = { 
				count = 14904,
				numComp = 3,
				offset = 25968,
			},
			position = { 
				count = 13440,
				numComp = 3,
				offset = 0,
			},
			tangent = { 
				count = 23472,
				numComp = 4,
				offset = 40872,
			},
			uv0 = { 
				count = 12528,
				numComp = 2,
				offset = 13440,
			},
		},
	}
end