function data()
return { 
		subMeshes = {
			{ 
				indices = { 
					normal = { 
						count = 71244,
						offset = 307292,
					},
					position = { 
						count = 71244,
						offset = 164804,
					},
					tangent = { 
						count = 71244,
						offset = 378536,
					},
					uv0 = { 
						count = 71244,
						offset = 236048,
					},
				},
			},
		},
		vertexAttr = { 
			normal = { 
				count = 31428,
				numComp = 3,
				offset = 67216,
			},
			position = { 
				count = 38112,
				numComp = 3,
				offset = 0,
			},
			tangent = { 
				count = 66160,
				numComp = 4,
				offset = 98644,
			},
			uv0 = { 
				count = 29104,
				numComp = 2,
				offset = 38112,
			},
		},
	}
end