function data()
return { 
		subMeshes = {
			{ 
				indices = { 
					normal = { 
						count = 231744,
						offset = 958240,
					},
					position = { 
						count = 231744,
						offset = 494752,
					},
					tangent = { 
						count = 231744,
						offset = 1189984,
					},
					uv0 = { 
						count = 231744,
						offset = 726496,
					},
				},
			},
		},
		vertexAttr = { 
			normal = { 
				count = 42672,
				numComp = 3,
				offset = 204480,
			},
			position = { 
				count = 129744,
				numComp = 3,
				offset = 0,
			},
			tangent = { 
				count = 247600,
				numComp = 4,
				offset = 247152,
			},
			uv0 = { 
				count = 74736,
				numComp = 2,
				offset = 129744,
			},
		},
	}
end