function data()
return { 
		subMeshes = {
			{ 
				indices = { 
					normal = { 
						count = 34848,
						offset = 161892,
					},
					position = { 
						count = 34848,
						offset = 92196,
					},
					tangent = { 
						count = 34848,
						offset = 196740,
					},
					uv0 = { 
						count = 34848,
						offset = 127044,
					},
				},
			},
		},
		vertexAttr = { 
			normal = { 
				count = 10092,
				numComp = 3,
				offset = 33320,
			},
			position = { 
				count = 20160,
				numComp = 3,
				offset = 0,
			},
			tangent = { 
				count = 48784,
				numComp = 4,
				offset = 43412,
			},
			uv0 = { 
				count = 13160,
				numComp = 2,
				offset = 20160,
			},
		},
	}
end