function data()
return { 
		subMeshes = {
			{ 
				indices = { 
					normal = { 
						count = 70500,
						offset = 302896,
					},
					position = { 
						count = 70500,
						offset = 161896,
					},
					tangent = { 
						count = 70500,
						offset = 373396,
					},
					uv0 = { 
						count = 70500,
						offset = 232396,
					},
				},
			},
		},
		vertexAttr = { 
			normal = { 
				count = 30648,
				numComp = 3,
				offset = 66256,
			},
			position = { 
				count = 37392,
				numComp = 3,
				offset = 0,
			},
			tangent = { 
				count = 64992,
				numComp = 4,
				offset = 96904,
			},
			uv0 = { 
				count = 28864,
				numComp = 2,
				offset = 37392,
			},
		},
	}
end