function data()
return { 
		subMeshes = {
			{ 
				indices = { 
					normal = { 
						count = 21144,
						offset = 134192,
					},
					position = { 
						count = 21144,
						offset = 91904,
					},
					tangent = { 
						count = 21144,
						offset = 155336,
					},
					uv0 = { 
						count = 21144,
						offset = 113048,
					},
				},
			},
		},
		vertexAttr = { 
			normal = { 
				count = 18264,
				numComp = 3,
				offset = 37112,
			},
			position = { 
				count = 22776,
				numComp = 3,
				offset = 0,
			},
			tangent = { 
				count = 36528,
				numComp = 4,
				offset = 55376,
			},
			uv0 = { 
				count = 14336,
				numComp = 2,
				offset = 22776,
			},
		},
	}
end