function data()
return { 
		subMeshes = {
			{ 
				indices = { 
					normal = { 
						count = 70500,
						offset = 298908,
					},
					position = { 
						count = 70500,
						offset = 157908,
					},
					tangent = { 
						count = 70500,
						offset = 369408,
					},
					uv0 = { 
						count = 70500,
						offset = 228408,
					},
					uv1 = { 
						count = 70500,
						offset = 439908,
					},
				},
			},
		},
		vertexAttr = { 
			normal = { 
				count = 28332,
				numComp = 3,
				offset = 66256,
			},
			position = { 
				count = 37392,
				numComp = 3,
				offset = 0,
			},
			tangent = { 
				count = 63312,
				numComp = 4,
				offset = 94588,
			},
			uv0 = { 
				count = 28864,
				numComp = 2,
				offset = 37392,
			},
			uv1 = { 
				count = 8,
				numComp = 2,
				offset = 157900,
			},
		},
	}
end