function data()
return { 
		subMeshes = {
			{ 
				indices = { 
					normal = { 
						count = 2808,
						offset = 18688,
					},
					position = { 
						count = 2808,
						offset = 13072,
					},
					tangent = { 
						count = 2808,
						offset = 21496,
					},
					uv0 = { 
						count = 2808,
						offset = 15880,
					},
					uv1 = { 
						count = 2808,
						offset = 24304,
					},
				},
			},
		},
		vertexAttr = { 
			normal = { 
				count = 2736,
				numComp = 3,
				offset = 5592,
			},
			position = { 
				count = 3336,
				numComp = 3,
				offset = 0,
			},
			tangent = { 
				count = 4736,
				numComp = 4,
				offset = 8328,
			},
			uv0 = { 
				count = 2256,
				numComp = 2,
				offset = 3336,
			},
			uv1 = { 
				count = 8,
				numComp = 2,
				offset = 13064,
			},
		},
	}
end