function data()
return { 
		subMeshes = {
			{ 
				indices = { 
					normal = { 
						count = 22272,
						offset = 140624,
					},
					position = { 
						count = 22272,
						offset = 96080,
					},
					tangent = { 
						count = 22272,
						offset = 162896,
					},
					uv0 = { 
						count = 22272,
						offset = 118352,
					},
				},
			},
		},
		vertexAttr = { 
			normal = { 
				count = 18972,
				numComp = 3,
				offset = 39156,
			},
			position = { 
				count = 23964,
				numComp = 3,
				offset = 0,
			},
			tangent = { 
				count = 37952,
				numComp = 4,
				offset = 58128,
			},
			uv0 = { 
				count = 15192,
				numComp = 2,
				offset = 23964,
			},
		},
	}
end